<svg width="268" height="31" viewBox="0 0 268 31" fill="none" xmlns="http://www.w3.org/2000/svg">
<path opacity="0.1" d="M267.199 0.472076L6.85699 6.24034C3.68496 13.6567 1.58671 22.0403 0.618652 30.7314H262.636C264.342 25.646 265.608 20.4235 266.419 15.1216C267.199 10.0131 267.512 5.07354 267.199 0.472076ZM53.4789 19.3733H48.7796C50.0695 19.3733 51.1292 20.3358 51.1292 21.512C51.1292 22.6882 50.0719 23.6508 48.7796 23.6508H21.6222C20.3323 23.6508 19.2726 22.6882 19.2726 21.512C19.2726 20.3358 20.3299 19.3733 21.6222 19.3733H26.3216C25.0316 19.3733 23.9719 18.4131 23.9719 17.2369C23.9719 16.0607 25.0292 15.0982 26.3216 15.0982H22.9639C21.6739 15.0982 20.6142 14.1356 20.6142 12.9594C20.6142 11.7832 21.6716 10.8207 22.9639 10.8207H50.1236C51.4159 10.8207 52.4732 11.7832 52.4732 12.9594C52.4732 14.1356 51.4183 15.0982 50.1236 15.0982H53.4789C54.7689 15.0982 55.8286 16.0607 55.8286 17.2369C55.8286 18.4131 54.7689 19.3733 53.4789 19.3733Z" fill="#590799"/>
</svg>
