<svg width="94" height="15" viewBox="0 0 94 15" fill="none" xmlns="http://www.w3.org/2000/svg">
<path d="M0.88 -9.53674e-07H3.48V14H0.88V-9.53674e-07ZM13.0867 3.2C14.4334 3.2 15.5134 3.59333 16.3267 4.38C17.1401 5.16667 17.5467 6.33333 17.5467 7.88V14H15.0467V8.2C15.0467 7.26667 14.8267 6.56667 14.3867 6.1C13.9467 5.62 13.3201 5.38 12.5067 5.38C11.5867 5.38 10.8601 5.66 10.3267 6.22C9.79339 6.76667 9.52672 7.56 9.52672 8.6V14H7.02672V3.32H9.40672V4.7C9.82005 4.20667 10.3401 3.83333 10.9667 3.58C11.5934 3.32667 12.3001 3.2 13.0867 3.2ZM24.0181 14.14C23.1515 14.14 22.3048 14.0267 21.4781 13.8C20.6515 13.5733 19.9915 13.2867 19.4981 12.94L20.4581 11.04C20.9381 11.36 21.5115 11.62 22.1781 11.82C22.8581 12.0067 23.5248 12.1 24.1781 12.1C25.6715 12.1 26.4181 11.7067 26.4181 10.92C26.4181 10.5467 26.2248 10.2867 25.8381 10.14C25.4648 9.99333 24.8581 9.85333 24.0181 9.72C23.1381 9.58667 22.4181 9.43333 21.8581 9.26C21.3115 9.08667 20.8315 8.78667 20.4181 8.36C20.0181 7.92 19.8181 7.31333 19.8181 6.54C19.8181 5.52667 20.2381 4.72 21.0781 4.12C21.9315 3.50667 23.0781 3.2 24.5181 3.2C25.2515 3.2 25.9848 3.28667 26.7181 3.46C27.4515 3.62 28.0515 3.84 28.5181 4.12L27.5581 6.02C26.6515 5.48667 25.6315 5.22 24.4981 5.22C23.7648 5.22 23.2048 5.33333 22.8181 5.56C22.4448 5.77333 22.2581 6.06 22.2581 6.42C22.2581 6.82 22.4581 7.10667 22.8581 7.28C23.2715 7.44 23.9048 7.59333 24.7581 7.74C25.6115 7.87333 26.3115 8.02667 26.8581 8.2C27.4048 8.37333 27.8715 8.66667 28.2581 9.08C28.6581 9.49333 28.8581 10.08 28.8581 10.84C28.8581 11.84 28.4248 12.64 27.5581 13.24C26.6915 13.84 25.5115 14.14 24.0181 14.14ZM37.4311 13.42C37.1378 13.66 36.7778 13.84 36.3511 13.96C35.9378 14.08 35.4978 14.14 35.0311 14.14C33.8578 14.14 32.9511 13.8333 32.3111 13.22C31.6711 12.6067 31.3511 11.7133 31.3511 10.54V5.4H29.5911V3.4H31.3511V0.96H33.8511V3.4H36.7111V5.4H33.8511V10.48C33.8511 11 33.9778 11.4 34.2311 11.68C34.4844 11.9467 34.8511 12.08 35.3311 12.08C35.8911 12.08 36.3578 11.9333 36.7311 11.64L37.4311 13.42ZM43.5677 3.2C45.141 3.2 46.341 3.58 47.1677 4.34C48.0077 5.08667 48.4277 6.22 48.4277 7.74V14H46.0677V12.7C45.761 13.1667 45.321 13.5267 44.7477 13.78C44.1877 14.02 43.5077 14.14 42.7077 14.14C41.9077 14.14 41.2077 14.0067 40.6077 13.74C40.0077 13.46 39.541 13.08 39.2077 12.6C38.8877 12.1067 38.7277 11.5533 38.7277 10.94C38.7277 9.98 39.081 9.21333 39.7877 8.64C40.5077 8.05333 41.6343 7.76 43.1677 7.76H45.9277V7.6C45.9277 6.85333 45.701 6.28 45.2477 5.88C44.8077 5.48 44.1477 5.28 43.2677 5.28C42.6677 5.28 42.0743 5.37333 41.4877 5.56C40.9143 5.74667 40.4277 6.00667 40.0277 6.34L39.0477 4.52C39.6077 4.09333 40.281 3.76667 41.0677 3.54C41.8543 3.31333 42.6877 3.2 43.5677 3.2ZM43.2277 12.32C43.8543 12.32 44.4077 12.18 44.8877 11.9C45.381 11.6067 45.7277 11.1933 45.9277 10.66V9.42H43.3477C41.9077 9.42 41.1877 9.89333 41.1877 10.84C41.1877 11.2933 41.3677 11.6533 41.7277 11.92C42.0877 12.1867 42.5877 12.32 43.2277 12.32ZM56.6961 8.14L54.4761 10.42V14H51.8761V-9.53674e-07H54.4761V7.18L61.3961 -9.53674e-07H64.3161L58.4361 6.26L64.6761 14H61.6361L56.6961 8.14ZM70.0325 3.2C71.6058 3.2 72.8058 3.58 73.6325 4.34C74.4725 5.08667 74.8925 6.22 74.8925 7.74V14H72.5325V12.7C72.2258 13.1667 71.7858 13.5267 71.2125 13.78C70.6525 14.02 69.9725 14.14 69.1725 14.14C68.3725 14.14 67.6725 14.0067 67.0725 13.74C66.4725 13.46 66.0058 13.08 65.6725 12.6C65.3525 12.1067 65.1925 11.5533 65.1925 10.94C65.1925 9.98 65.5458 9.21333 66.2525 8.64C66.9725 8.05333 68.0992 7.76 69.6325 7.76H72.3925V7.6C72.3925 6.85333 72.1658 6.28 71.7125 5.88C71.2725 5.48 70.6125 5.28 69.7325 5.28C69.1325 5.28 68.5392 5.37333 67.9525 5.56C67.3792 5.74667 66.8925 6.00667 66.4925 6.34L65.5125 4.52C66.0725 4.09333 66.7458 3.76667 67.5325 3.54C68.3192 3.31333 69.1525 3.2 70.0325 3.2ZM69.6925 12.32C70.3192 12.32 70.8725 12.18 71.3525 11.9C71.8458 11.6067 72.1925 11.1933 72.3925 10.66V9.42H69.8125C68.3725 9.42 67.6525 9.89333 67.6525 10.84C67.6525 11.2933 67.8325 11.6533 68.1925 11.92C68.5525 12.1867 69.0525 12.32 69.6925 12.32ZM80.4809 4.88C81.2009 3.76 82.4676 3.2 84.2809 3.2V5.58C84.0676 5.54 83.8743 5.52 83.7009 5.52C82.7276 5.52 81.9676 5.80667 81.4209 6.38C80.8743 6.94 80.6009 7.75333 80.6009 8.82V14H78.1009V3.32H80.4809V4.88ZM93.2123 13.42C92.919 13.66 92.559 13.84 92.1323 13.96C91.719 14.08 91.279 14.14 90.8123 14.14C89.639 14.14 88.7323 13.8333 88.0923 13.22C87.4523 12.6067 87.1323 11.7133 87.1323 10.54V5.4H85.3723V3.4H87.1323V0.96H89.6323V3.4H92.4923V5.4H89.6323V10.48C89.6323 11 89.759 11.4 90.0123 11.68C90.2657 11.9467 90.6323 12.08 91.1123 12.08C91.6723 12.08 92.139 11.9333 92.5123 11.64L93.2123 13.42Z" fill="white"/>
</svg>
