<svg width="240" height="134" viewBox="0 0 240 134" fill="none" xmlns="http://www.w3.org/2000/svg">
<path opacity="0.1" d="M237.267 55.1121C237.223 55.3211 237.18 55.53 237.131 55.7366C235.59 62.8384 233.071 69.6819 229.325 75.9666C229.201 76.1756 229.076 76.3845 228.949 76.5935C226.48 80.637 223.525 84.3638 220.15 87.691C218.284 89.5316 216.25 91.2806 213.829 92.5413C210.439 94.3114 206.475 95.0298 202.579 95.6168C198.533 96.2295 194.431 96.7413 190.34 97.293C188.886 97.4855 187.441 97.6898 186.005 97.9058C182.053 98.4903 178.129 99.1665 174.299 100.063C169.564 101.169 164.975 102.618 160.64 104.655C160.294 104.812 159.952 104.978 159.613 105.153C159.275 105.322 158.934 105.493 158.601 105.667C158.267 105.841 157.938 106.015 157.612 106.193C157.442 106.285 157.273 106.376 157.106 106.472C156.94 106.569 156.775 106.653 156.613 106.747C156.124 107.019 155.645 107.299 155.166 107.581L155.147 107.592C154.83 107.778 154.517 107.968 154.207 108.158C152.435 109.233 150.701 110.356 148.967 111.485L147.877 112.189L146.188 113.281C145.859 113.494 145.523 113.708 145.191 113.919C144.956 114.074 144.721 114.229 144.465 114.389C143.234 115.164 141.986 115.924 140.706 116.65C140.403 116.823 140.097 116.997 139.789 117.166C137.202 118.608 134.497 119.827 131.702 120.81L131.664 120.824C130.258 121.314 128.824 121.718 127.369 122.035C126.53 122.218 125.689 122.369 124.839 122.484C122.565 122.806 120.259 122.838 117.978 122.58C113.497 122.061 109.298 120.343 104.819 119.763C95.5994 118.589 86.6448 122.371 77.9746 125.334C75.8427 126.062 73.6951 126.743 71.5318 127.379C70.0938 127.804 68.6512 128.205 67.1967 128.592C58.2858 130.945 49.1914 132.538 40.0112 133.356C36.1736 133.732 32.3131 133.817 28.4626 133.612C26.9988 133.523 25.5514 133.377 24.1298 133.142C19.266 132.391 14.7312 130.816 11.0704 127.93C8.07228 125.562 5.92704 122.474 4.29403 119.244C2.62238 115.948 1.44211 112.425 0.79069 108.787C0.701403 108.292 0.621514 107.794 0.555724 107.297C0.438241 106.445 0.35052 105.589 0.292562 104.728C-0.0235891 100.14 0.524755 95.533 1.90913 91.1468C3.4599 86.2354 6.04453 81.5213 7.18176 76.5723C7.22875 76.3626 7.27339 76.1537 7.31569 75.9455C7.47101 75.1938 7.5863 74.4345 7.66109 73.6706C8.24145 67.5901 6.01633 61.6622 4.27053 55.7155C4.20944 55.5089 4.14835 55.2999 4.08961 55.091C3.90164 54.4305 3.7215 53.7708 3.54919 53.1119C1.93262 46.8248 1.48384 40.094 2.92418 33.8186C2.96882 33.6097 3.02286 33.4007 3.07456 33.1941C4.03881 29.2274 5.85208 25.5166 8.38948 22.3173C11.0869 18.9366 14.6278 16.1217 18.4108 13.6496C20.2545 12.4445 22.1608 11.3184 24.1298 10.2713C25.5396 9.52006 26.9839 8.80871 28.4626 8.13727C40.3166 2.73759 53.8389 0.101138 67.2108 0.683364C67.9157 0.713884 68.6206 0.751446 69.3255 0.803095C70.0304 0.854745 70.8011 0.915785 71.5389 0.983867C80.1527 1.81964 88.534 3.83631 96.8564 6.04078C99.6455 6.7803 102.43 7.53861 105.212 8.28282C106.45 8.6115 107.686 8.94018 108.924 9.25946C114.989 10.8254 121.143 12.2434 127.374 13.3022C128.816 13.551 130.261 13.778 131.707 13.983C136.727 14.7202 141.787 15.149 146.86 15.2672C148.832 15.3063 150.805 15.2891 152.778 15.2155C153.775 15.1795 154.772 15.1255 155.769 15.0536C166.073 14.3281 176.031 11.9006 186.005 9.63274C187.448 9.30407 188.893 8.98009 190.34 8.6608C192.238 8.24291 194.137 7.83911 196.045 7.46583C207.918 5.13458 218.501 6.47511 229.539 11.2855C232.049 12.3772 234.556 13.6966 236.092 15.7461C237.629 17.7957 238.014 20.3124 238.301 22.7422C238.708 26.2027 238.973 29.7078 239.074 33.2317C239.074 33.4383 239.074 33.6472 239.088 33.8562C239.248 40.9744 238.717 48.1606 237.267 55.1121Z" fill="#590799"/>
</svg>
