<svg width="229" height="157" viewBox="0 0 229 157" fill="none" xmlns="http://www.w3.org/2000/svg">
<path opacity="0.1" d="M207.729 39.182H228.201C228.156 38.936 228.107 38.6899 228.055 38.4439H207.729V11.4054C206.36 10.5165 204.966 9.67679 203.545 8.88629V38.4439H166.14V0.0940247C165.458 0.128466 164.774 0.175207 164.092 0.234248C163.41 0.29329 162.667 0.367091 161.956 0.448273V38.4439H108.555L108.427 38.3037L137.522 6.38933C134.83 7.26019 132.143 8.15565 129.455 9.03389L108.063 32.5004V14.9553C106.67 15.2472 105.275 15.5145 103.879 15.7572V33.3098L89.2518 17.2628C87.3471 17.3087 85.4424 17.289 83.5376 17.2038L102.772 38.3037L102.644 38.4439H51.4576V10.6182C50.0647 10.2295 48.6694 9.84325 47.2741 9.46932V38.4439H0.234308L0.219543 39.182H47.279V64.2746H1.97907C2.02091 64.5206 2.06274 64.7666 2.10704 65.0126H47.279V88.8752H9.64472C9.76285 89.1212 9.88343 89.3672 10.0065 89.6132H47.279V114.032C48.6768 114.261 50.0713 114.501 51.4625 114.75V89.6132H103.879V141.767C105.238 142.346 106.636 142.829 108.063 143.211V89.6132H161.956V149.533C163.344 150.035 164.739 150.511 166.14 150.962V89.6132H203.545V156.879C204.948 156.776 206.345 156.595 207.729 156.338V89.6132H224.088C224.042 89.3672 224 89.1212 223.958 88.8752H207.716V65.0126H226.886C226.946 64.7666 227.005 64.5206 227.061 64.2746H207.729V39.182ZM203.545 39.182V64.2746H166.14V39.182H203.545ZM161.956 64.2746H108.063V39.182H161.956V64.2746ZM51.4625 39.182H103.141L103.879 39.8536V64.2746H51.4625V39.182ZM51.4625 88.8752V65.0126H103.879V88.8752H51.4625ZM108.063 88.8752V65.0126H161.956V88.8752H108.063ZM203.545 88.8752H166.14V65.0126H203.545V88.8752Z" fill="#590799"/>
</svg>
